<svg width="77" height="31" viewBox="0 0 77 31" fill="none" xmlns="http://www.w3.org/2000/svg">
<path d="M75.2764 15.1583L57.1241 14.3734C55.4776 11.1835 48.9163 8.78854 40.586 8.43495L39.1218 1.75675C38.9344 0.904105 37.7126 0.934207 37.5702 1.79688L36.4683 8.4249C28.2105 8.7459 21.6592 11.0681 19.8477 14.1903L1.58307 15.1608C0.583638 15.2134 0.583638 16.693 1.58307 16.7457L19.8477 17.7162C21.6617 20.8359 28.213 23.1606 36.4683 23.4816L37.5702 30.1096C37.7126 30.9698 38.9344 31.0024 39.1218 30.1497L40.586 23.4715C48.9163 23.1154 55.4776 20.7205 57.1241 17.5331L75.2764 16.7482C76.2858 16.7006 76.2858 15.2034 75.2764 15.1583ZM55.6475 14.3107L42.3525 13.7364C41.9952 13.7213 41.6904 13.4655 41.6154 13.1145L40.8584 9.66376C48.3941 10.0249 53.826 12.0537 55.6475 14.3107ZM36.2685 9.6487L35.7587 12.7232C35.6988 13.0894 35.3914 13.3652 35.0216 13.3853L21.3994 14.1075C23.3957 11.9082 28.8277 9.96719 36.2685 9.6487ZM21.3969 17.7964L35.0192 18.5187C35.389 18.5387 35.6963 18.8146 35.7562 19.1807L36.266 22.2553C28.8277 21.9368 23.3932 19.9958 21.3969 17.7964ZM40.8559 22.2427L41.6129 18.7921C41.6904 18.441 41.9927 18.1852 42.35 18.1701L55.6475 17.5958C53.8285 19.8503 48.3941 21.8791 40.8559 22.2427Z" fill="white"/>
<path d="M44.0616 5.80427L56.2797 6.45378C56.4146 6.4613 56.527 6.5616 56.5495 6.69451L57.2117 10.6869C57.2641 11.0029 57.7114 11.0129 57.7788 10.702L58.6883 6.55158C58.7158 6.42369 58.8282 6.33089 58.9582 6.32337L70.9914 5.80176C71.3612 5.78672 71.3612 5.2375 70.9914 5.22245L58.9582 4.70085C58.8282 4.69583 58.7158 4.60303 58.6883 4.47263L57.7788 0.322287C57.7114 0.0113228 57.2641 0.021338 57.2117 0.337317L56.5495 4.3297C56.527 4.46261 56.4146 4.56542 56.2797 4.57044L44.0616 5.21997C43.6943 5.24505 43.6943 5.78421 44.0616 5.80427Z" fill="white"/>
<path d="M29.5897 25.7612L21.3743 25.4051C21.2844 25.4001 21.2094 25.3374 21.1894 25.2497L20.5673 22.4159C20.5198 22.2027 20.215 22.2102 20.18 22.4259L19.7278 25.1519C19.7128 25.2446 19.6353 25.3123 19.5429 25.3173L11.2001 25.7612C10.9502 25.7738 10.9502 26.1424 11.2001 26.1575L19.5429 26.6013C19.6353 26.6063 19.7128 26.6741 19.7278 26.7668L20.18 29.4928C20.215 29.7085 20.5198 29.716 20.5673 29.5028L21.1894 26.669C21.2094 26.5813 21.2844 26.5186 21.3743 26.5136L29.5897 26.1575C29.842 26.1449 29.842 25.7713 29.5897 25.7612Z" fill="white"/>
</svg>
